{
    "asset" : {
        "generator" : "Khronos glTF Blender I/O v1.5.17",
        "version" : "2.0"
    },
    "scene" : 0,
    "scenes" : [
        {
            "name" : "Scene",
            "nodes" : [
                0,
                1,
                2,
                3,
                4,
                5
            ]
        }
    ],
    "nodes" : [
        {
            "mesh" : 0,
            "name" : "Sphere"
        },
        {
            "mesh" : 1,
            "name" : "Sphere.001",
            "translation" : [
                0,
                0,
                -1.9992059469223022
            ]
        },
        {
            "mesh" : 2,
            "name" : "Sphere.002",
            "translation" : [
                0,
                0,
                1.9856619834899902
            ]
        },
        {
            "mesh" : 3,
            "name" : "Sphere.003",
            "translation" : [
                0,
                0,
                3.9867208003997803
            ]
        },
        {
            "mesh" : 4,
            "name" : "Sphere.004",
            "translation" : [
                0,
                0,
                5.988467216491699
            ]
        },
        {
            "mesh" : 5,
            "name" : "Sphere.005",
            "translation" : [
                0,
                0,
                7.990908145904541
            ]
        }
    ],
    "materials" : [
        {
            "doubleSided" : true,
            "name" : "Material.001",
            "pbrMetallicRoughness" : {
                "baseColorFactor" : [
                    0.20361053943634033,
                    0.8000000715255737,
                    0.1800137758255005,
                    1
                ],
                "metallicFactor" : 0,
                "roughnessFactor" : 0.5
            }
        }
    ],
    "meshes" : [
        {
            "name" : "Sphere",
            "primitives" : [
                {
                    "attributes" : {
                        "POSITION" : 0,
                        "NORMAL" : 1,
                        "TEXCOORD_0" : 2
                    },
                    "indices" : 3,
                    "material" : 0
                }
            ]
        },
        {
            "name" : "Sphere.001",
            "primitives" : [
                {
                    "attributes" : {
                        "POSITION" : 4,
                        "NORMAL" : 5,
                        "TEXCOORD_0" : 6
                    },
                    "indices" : 3,
                    "material" : 0
                }
            ]
        },
        {
            "name" : "Sphere.002",
            "primitives" : [
                {
                    "attributes" : {
                        "POSITION" : 7,
                        "NORMAL" : 8,
                        "TEXCOORD_0" : 9
                    },
                    "indices" : 3,
                    "material" : 0
                }
            ]
        },
        {
            "name" : "Sphere.003",
            "primitives" : [
                {
                    "attributes" : {
                        "POSITION" : 10,
                        "NORMAL" : 11,
                        "TEXCOORD_0" : 12
                    },
                    "indices" : 3,
                    "material" : 0
                }
            ]
        },
        {
            "name" : "Sphere.004",
            "primitives" : [
                {
                    "attributes" : {
                        "POSITION" : 13,
                        "NORMAL" : 14,
                        "TEXCOORD_0" : 15
                    },
                    "indices" : 3,
                    "material" : 0
                }
            ]
        },
        {
            "name" : "Sphere.005",
            "primitives" : [
                {
                    "attributes" : {
                        "POSITION" : 16,
                        "NORMAL" : 17,
                        "TEXCOORD_0" : 18
                    },
                    "indices" : 3,
                    "material" : 0
                }
            ]
        }
    ],
    "accessors" : [
        {
            "bufferView" : 0,
            "componentType" : 5126,
            "count" : 3526,
            "max" : [
                0.9983088970184326,
                1,
                0.9995915293693542
            ],
            "min" : [
                -0.9983094334602356,
                -1,
                -0.9995933771133423
            ],
            "type" : "VEC3"
        },
        {
            "bufferView" : 1,
            "componentType" : 5126,
            "count" : 3526,
            "type" : "VEC3"
        },
        {
            "bufferView" : 2,
            "componentType" : 5126,
            "count" : 3526,
            "type" : "VEC2"
        },
        {
            "bufferView" : 3,
            "componentType" : 5123,
            "count" : 20088,
            "type" : "SCALAR"
        },
        {
            "bufferView" : 4,
            "componentType" : 5126,
            "count" : 3526,
            "max" : [
                0.9983088970184326,
                1,
                0.9995915293693542
            ],
            "min" : [
                -0.9983094334602356,
                -1,
                -0.9995933771133423
            ],
            "type" : "VEC3"
        },
        {
            "bufferView" : 5,
            "componentType" : 5126,
            "count" : 3526,
            "type" : "VEC3"
        },
        {
            "bufferView" : 6,
            "componentType" : 5126,
            "count" : 3526,
            "type" : "VEC2"
        },
        {
            "bufferView" : 7,
            "componentType" : 5126,
            "count" : 3526,
            "max" : [
                0.9983088970184326,
                1,
                0.9995915293693542
            ],
            "min" : [
                -0.9983094334602356,
                -1,
                -0.9995933771133423
            ],
            "type" : "VEC3"
        },
        {
            "bufferView" : 8,
            "componentType" : 5126,
            "count" : 3526,
            "type" : "VEC3"
        },
        {
            "bufferView" : 9,
            "componentType" : 5126,
            "count" : 3526,
            "type" : "VEC2"
        },
        {
            "bufferView" : 10,
            "componentType" : 5126,
            "count" : 3526,
            "max" : [
                0.9983088970184326,
                1,
                0.9995915293693542
            ],
            "min" : [
                -0.9983094334602356,
                -1,
                -0.9995933771133423
            ],
            "type" : "VEC3"
        },
        {
            "bufferView" : 11,
            "componentType" : 5126,
            "count" : 3526,
            "type" : "VEC3"
        },
        {
            "bufferView" : 12,
            "componentType" : 5126,
            "count" : 3526,
            "type" : "VEC2"
        },
        {
            "bufferView" : 13,
            "componentType" : 5126,
            "count" : 3526,
            "max" : [
                0.9983088970184326,
                1,
                0.9995915293693542
            ],
            "min" : [
                -0.9983094334602356,
                -1,
                -0.9995933771133423
            ],
            "type" : "VEC3"
        },
        {
            "bufferView" : 14,
            "componentType" : 5126,
            "count" : 3526,
            "type" : "VEC3"
        },
        {
            "bufferView" : 15,
            "componentType" : 5126,
            "count" : 3526,
            "type" : "VEC2"
        },
        {
            "bufferView" : 16,
            "componentType" : 5126,
            "count" : 3526,
            "max" : [
                0.9983088970184326,
                1,
                0.9995915293693542
            ],
            "min" : [
                -0.9983094334602356,
                -1,
                -0.9995933771133423
            ],
            "type" : "VEC3"
        },
        {
            "bufferView" : 17,
            "componentType" : 5126,
            "count" : 3526,
            "type" : "VEC3"
        },
        {
            "bufferView" : 18,
            "componentType" : 5126,
            "count" : 3526,
            "type" : "VEC2"
        }
    ],
    "bufferViews" : [
        {
            "buffer" : 0,
            "byteLength" : 42312,
            "byteOffset" : 0
        },
        {
            "buffer" : 0,
            "byteLength" : 42312,
            "byteOffset" : 42312
        },
        {
            "buffer" : 0,
            "byteLength" : 28208,
            "byteOffset" : 84624
        },
        {
            "buffer" : 0,
            "byteLength" : 40176,
            "byteOffset" : 112832
        },
        {
            "buffer" : 0,
            "byteLength" : 42312,
            "byteOffset" : 153008
        },
        {
            "buffer" : 0,
            "byteLength" : 42312,
            "byteOffset" : 195320
        },
        {
            "buffer" : 0,
            "byteLength" : 28208,
            "byteOffset" : 237632
        },
        {
            "buffer" : 0,
            "byteLength" : 42312,
            "byteOffset" : 265840
        },
        {
            "buffer" : 0,
            "byteLength" : 42312,
            "byteOffset" : 308152
        },
        {
            "buffer" : 0,
            "byteLength" : 28208,
            "byteOffset" : 350464
        },
        {
            "buffer" : 0,
            "byteLength" : 42312,
            "byteOffset" : 378672
        },
        {
            "buffer" : 0,
            "byteLength" : 42312,
            "byteOffset" : 420984
        },
        {
            "buffer" : 0,
            "byteLength" : 28208,
            "byteOffset" : 463296
        },
        {
            "buffer" : 0,
            "byteLength" : 42312,
            "byteOffset" : 491504
        },
        {
            "buffer" : 0,
            "byteLength" : 42312,
            "byteOffset" : 533816
        },
        {
            "buffer" : 0,
            "byteLength" : 28208,
            "byteOffset" : 576128
        },
        {
            "buffer" : 0,
            "byteLength" : 42312,
            "byteOffset" : 604336
        },
        {
            "buffer" : 0,
            "byteLength" : 42312,
            "byteOffset" : 646648
        },
        {
            "buffer" : 0,
            "byteLength" : 28208,
            "byteOffset" : 688960
        }
    ],
    "buffers" : [
        {
            "byteLength" : 717168,
            "uri" : "data:application/octet-stream;base64,"
        }
    ]
}
