{
  "asset": {
    "generator": "Khronos glTF Blender I/O v1.5.17",
    "version": "2.0"
  },
  "scene": 0,
  "scenes": [
    {
      "name": "Scene",
      "nodes": [0, 1, 2, 3, 4, 5, 6, 7, 8, 9, 10, 11, 12, 13, 14]
    }
  ],
  "nodes": [
    {
      "mesh": 0,
      "name": "Sphere.002",
      "rotation": [
        0.5446234941482544, -0.45457223057746887, -0.45162656903266907,
        0.5410940647125244
      ],
      "translation": [
        0.11995670199394226, 0.13385418057441711, 0.0523674339056015
      ]
    },
    {
      "mesh": 1,
      "name": "Cylinder.001",
      "rotation": [
        0.24767804145812988, -0.6647602319717407, -0.6604525446891785,
        0.24607302248477936
      ],
      "scale": [0.2442651391029358, 2.3207340240478516, 0.24443241953849792],
      "translation": [
        0.13716043531894684, 0.10250170528888702, 3.058779716491699
      ]
    },
    {
      "mesh": 2,
      "name": "Cylinder.002",
      "rotation": [
        0.7001175284385681, 0.11409072577953339, -0.6923202872276306,
        -0.13233090937137604
      ],
      "scale": [0.2442651391029358, 1, 0.2442651391029358],
      "translation": [
        0.010398149490356445, -1.6338896751403809, -0.5478593111038208
      ]
    },
    {
      "mesh": 3,
      "name": "Sphere.004",
      "rotation": [
        0.5446234941482544, -0.45457223057746887, -0.45162656903266907,
        0.5410940647125244
      ],
      "scale": [0.8455135822296143, 0.8455135822296143, 0.8455135822296143],
      "translation": [
        0.005324818193912506, -3.2086124420166016, -1.0757129192352295
      ]
    },
    {
      "mesh": 4,
      "name": "Cylinder.003",
      "rotation": [
        -0.45530974864959717, -0.5242010354995728, -0.2947889566421509,
        0.6565103530883789
      ],
      "scale": [0.2442651391029358, 1, 0.2442651391029358],
      "translation": [
        1.5289467573165894, 0.7898645401000977, -0.5900228023529053
      ]
    },
    {
      "mesh": 5,
      "name": "Sphere.005",
      "rotation": [
        0.5446234941482544, -0.45457223057746887, -0.45162656903266907,
        0.5410940647125244
      ],
      "scale": [0.8455135822296143, 0.8455135822296143, 0.8455135822296143],
      "translation": [
        3.071674346923828, 1.5917198657989502, -1.0733914375305176
      ]
    },
    {
      "mesh": 6,
      "name": "Cylinder.004",
      "rotation": [
        0.4881320297718048, -0.859921932220459, 0.14837734401226044,
        0.015671787783503532
      ],
      "scale": [0.2442651391029358, 1, 0.2442651391029358],
      "translation": [
        -1.4984691143035889, 0.9296333193778992, -0.5723980665206909
      ]
    },
    {
      "mesh": 7,
      "name": "Sphere.006",
      "rotation": [
        0.5446234941482544, -0.45457223057746887, -0.45162656903266907,
        0.5410940647125244
      ],
      "scale": [0.8455135822296143, 0.8455135822296143, 0.8455135822296143],
      "translation": [
        -2.8312764167785645, 1.6932923793792725, -1.0743334293365479
      ]
    },
    {
      "mesh": 8,
      "name": "Sphere.007",
      "rotation": [
        0.10037046670913696, -0.7027328610420227, 0.6972621083259583,
        -0.09958909451961517
      ],
      "translation": [
        0.15496528148651123, 0.09207146614789963, 6.148173809051514
      ]
    },
    {
      "mesh": 9,
      "name": "Cylinder.005",
      "rotation": [
        0.6627276539802551, -0.2541971504688263, 0.5324790477752686,
        0.4611313045024872
      ],
      "scale": [0.2442651391029358, 1, 0.2442651391029358],
      "translation": [
        -1.3750333786010742, -0.7551374435424805, 6.743191719055176
      ]
    },
    {
      "mesh": 10,
      "name": "Sphere.008",
      "rotation": [
        0.10037046670913696, -0.7027328610420227, 0.6972621083259583,
        -0.09958909451961517
      ],
      "scale": [0.8455135822296143, 0.8455135822296143, 0.8455135822296143],
      "translation": [
        -2.8587539196014404, -1.479560136795044, 7.266022682189941
      ]
    },
    {
      "mesh": 11,
      "name": "Cylinder.006",
      "rotation": [
        -0.09936875104904175, -0.7140214443206787, -0.11638092249631882,
        -0.6831945776939392
      ],
      "scale": [0.2442651391029358, 1, 0.2442651391029358],
      "translation": [
        0.11430621147155762, 1.6860411167144775, 6.812944412231445
      ]
    },
    {
      "mesh": 12,
      "name": "Sphere.009",
      "rotation": [
        0.10037046670913696, -0.7027328610420227, 0.6972621083259583,
        -0.09958909451961517
      ],
      "scale": [0.8455135822296143, 0.8455135822296143, 0.8455135822296143],
      "translation": [
        0.1024734228849411, 3.2316553592681885, 7.3173933029174805
      ]
    },
    {
      "mesh": 13,
      "name": "Cylinder.007",
      "rotation": [
        -0.13597305119037628, 0.05777169018983841, 0.868044376373291,
        -0.47399675846099854
      ],
      "scale": [0.2442651391029358, 1, 0.2442651391029358],
      "translation": [
        1.5926756858825684, -0.9589402675628662, 6.753037452697754
      ]
    },
    {
      "mesh": 14,
      "name": "Sphere.010",
      "rotation": [
        0.10037046670913696, -0.7027328610420227, 0.6972621083259583,
        -0.09958909451961517
      ],
      "scale": [0.8455135822296143, 0.8455135822296143, 0.8455135822296143],
      "translation": [2.928377866744995, -1.8427915573120117, 7.237521648406982]
    }
  ],
  "materials": [
    {
      "doubleSided": true,
      "name": "Material.002",
      "pbrMetallicRoughness": {
        "baseColorFactor": [0.01223019789904356, 0.19582480192184448, 1, 1],
        "metallicFactor": 0,
        "roughnessFactor": 0.5
      }
    },
    {
      "doubleSided": true,
      "name": "Material.001",
      "pbrMetallicRoughness": {
        "baseColorFactor": [
          0.004671892616897821, 0.004671892616897821, 0.004671892616897821, 1
        ],
        "metallicFactor": 0,
        "roughnessFactor": 0.5
      }
    },
    {
      "doubleSided": true,
      "name": "Material.003",
      "pbrMetallicRoughness": {
        "baseColorFactor": [
          0.8000000715255737, 0.01611519418656826, 0.03291602432727814, 1
        ],
        "metallicFactor": 0,
        "roughnessFactor": 0.5
      }
    }
  ],
  "meshes": [
    {
      "name": "Sphere.002",
      "primitives": [
        {
          "attributes": {
            "POSITION": 0,
            "NORMAL": 1,
            "TEXCOORD_0": 2
          },
          "indices": 3,
          "material": 0
        }
      ]
    },
    {
      "name": "Cylinder.001",
      "primitives": [
        {
          "attributes": {
            "POSITION": 4,
            "NORMAL": 5,
            "TEXCOORD_0": 6
          },
          "indices": 7,
          "material": 1
        }
      ]
    },
    {
      "name": "Cylinder.005",
      "primitives": [
        {
          "attributes": {
            "POSITION": 8,
            "NORMAL": 9,
            "TEXCOORD_0": 10
          },
          "indices": 7,
          "material": 1
        }
      ]
    },
    {
      "name": "Sphere.004",
      "primitives": [
        {
          "attributes": {
            "POSITION": 11,
            "NORMAL": 12,
            "TEXCOORD_0": 13
          },
          "indices": 3,
          "material": 2
        }
      ]
    },
    {
      "name": "Cylinder.006",
      "primitives": [
        {
          "attributes": {
            "POSITION": 14,
            "NORMAL": 15,
            "TEXCOORD_0": 16
          },
          "indices": 7,
          "material": 1
        }
      ]
    },
    {
      "name": "Sphere.005",
      "primitives": [
        {
          "attributes": {
            "POSITION": 17,
            "NORMAL": 18,
            "TEXCOORD_0": 19
          },
          "indices": 3,
          "material": 2
        }
      ]
    },
    {
      "name": "Cylinder.007",
      "primitives": [
        {
          "attributes": {
            "POSITION": 20,
            "NORMAL": 21,
            "TEXCOORD_0": 22
          },
          "indices": 7,
          "material": 1
        }
      ]
    },
    {
      "name": "Sphere.006",
      "primitives": [
        {
          "attributes": {
            "POSITION": 23,
            "NORMAL": 24,
            "TEXCOORD_0": 25
          },
          "indices": 3,
          "material": 2
        }
      ]
    },
    {
      "name": "Sphere.008",
      "primitives": [
        {
          "attributes": {
            "POSITION": 26,
            "NORMAL": 27,
            "TEXCOORD_0": 28
          },
          "indices": 3,
          "material": 0
        }
      ]
    },
    {
      "name": "Cylinder.002",
      "primitives": [
        {
          "attributes": {
            "POSITION": 29,
            "NORMAL": 30,
            "TEXCOORD_0": 31
          },
          "indices": 7,
          "material": 1
        }
      ]
    },
    {
      "name": "Sphere.009",
      "primitives": [
        {
          "attributes": {
            "POSITION": 32,
            "NORMAL": 33,
            "TEXCOORD_0": 34
          },
          "indices": 3,
          "material": 2
        }
      ]
    },
    {
      "name": "Cylinder.003",
      "primitives": [
        {
          "attributes": {
            "POSITION": 35,
            "NORMAL": 36,
            "TEXCOORD_0": 37
          },
          "indices": 7,
          "material": 1
        }
      ]
    },
    {
      "name": "Sphere.010",
      "primitives": [
        {
          "attributes": {
            "POSITION": 38,
            "NORMAL": 39,
            "TEXCOORD_0": 40
          },
          "indices": 3,
          "material": 2
        }
      ]
    },
    {
      "name": "Cylinder.004",
      "primitives": [
        {
          "attributes": {
            "POSITION": 41,
            "NORMAL": 42,
            "TEXCOORD_0": 43
          },
          "indices": 7,
          "material": 1
        }
      ]
    },
    {
      "name": "Sphere.011",
      "primitives": [
        {
          "attributes": {
            "POSITION": 44,
            "NORMAL": 45,
            "TEXCOORD_0": 46
          },
          "indices": 3,
          "material": 2
        }
      ]
    }
  ],
  "accessors": [
    {
      "bufferView": 0,
      "componentType": 5126,
      "count": 9373,
      "max": [1.0000032186508179, 1, 1.0000064373016357],
      "min": [-1.0000048875808716, -1, -1],
      "type": "VEC3"
    },
    {
      "bufferView": 1,
      "componentType": 5126,
      "count": 9373,
      "type": "VEC3"
    },
    {
      "bufferView": 2,
      "componentType": 5126,
      "count": 9373,
      "type": "VEC2"
    },
    {
      "bufferView": 3,
      "componentType": 5123,
      "count": 54312,
      "type": "SCALAR"
    },
    {
      "bufferView": 4,
      "componentType": 5126,
      "count": 273,
      "max": [1, 1, 1],
      "min": [-1, -1, -1],
      "type": "VEC3"
    },
    {
      "bufferView": 5,
      "componentType": 5126,
      "count": 273,
      "type": "VEC3"
    },
    {
      "bufferView": 6,
      "componentType": 5126,
      "count": 273,
      "type": "VEC2"
    },
    {
      "bufferView": 7,
      "componentType": 5123,
      "count": 372,
      "type": "SCALAR"
    },
    {
      "bufferView": 8,
      "componentType": 5126,
      "count": 273,
      "max": [1, 1, 1],
      "min": [-1, -1, -1],
      "type": "VEC3"
    },
    {
      "bufferView": 9,
      "componentType": 5126,
      "count": 273,
      "type": "VEC3"
    },
    {
      "bufferView": 10,
      "componentType": 5126,
      "count": 273,
      "type": "VEC2"
    },
    {
      "bufferView": 11,
      "componentType": 5126,
      "count": 9373,
      "max": [1.0000032186508179, 1, 1.0000064373016357],
      "min": [-1.0000048875808716, -1, -1],
      "type": "VEC3"
    },
    {
      "bufferView": 12,
      "componentType": 5126,
      "count": 9373,
      "type": "VEC3"
    },
    {
      "bufferView": 13,
      "componentType": 5126,
      "count": 9373,
      "type": "VEC2"
    },
    {
      "bufferView": 14,
      "componentType": 5126,
      "count": 273,
      "max": [1, 1, 1],
      "min": [-1, -1, -1],
      "type": "VEC3"
    },
    {
      "bufferView": 15,
      "componentType": 5126,
      "count": 273,
      "type": "VEC3"
    },
    {
      "bufferView": 16,
      "componentType": 5126,
      "count": 273,
      "type": "VEC2"
    },
    {
      "bufferView": 17,
      "componentType": 5126,
      "count": 9373,
      "max": [1.0000032186508179, 1, 1.0000064373016357],
      "min": [-1.0000048875808716, -1, -1],
      "type": "VEC3"
    },
    {
      "bufferView": 18,
      "componentType": 5126,
      "count": 9373,
      "type": "VEC3"
    },
    {
      "bufferView": 19,
      "componentType": 5126,
      "count": 9373,
      "type": "VEC2"
    },
    {
      "bufferView": 20,
      "componentType": 5126,
      "count": 273,
      "max": [1, 1, 1],
      "min": [-1, -1, -1],
      "type": "VEC3"
    },
    {
      "bufferView": 21,
      "componentType": 5126,
      "count": 273,
      "type": "VEC3"
    },
    {
      "bufferView": 22,
      "componentType": 5126,
      "count": 273,
      "type": "VEC2"
    },
    {
      "bufferView": 23,
      "componentType": 5126,
      "count": 9373,
      "max": [1.0000032186508179, 1, 1.0000064373016357],
      "min": [-1.0000048875808716, -1, -1],
      "type": "VEC3"
    },
    {
      "bufferView": 24,
      "componentType": 5126,
      "count": 9373,
      "type": "VEC3"
    },
    {
      "bufferView": 25,
      "componentType": 5126,
      "count": 9373,
      "type": "VEC2"
    },
    {
      "bufferView": 26,
      "componentType": 5126,
      "count": 9373,
      "max": [1.0000032186508179, 1, 1.0000064373016357],
      "min": [-1.0000048875808716, -1, -1],
      "type": "VEC3"
    },
    {
      "bufferView": 27,
      "componentType": 5126,
      "count": 9373,
      "type": "VEC3"
    },
    {
      "bufferView": 28,
      "componentType": 5126,
      "count": 9373,
      "type": "VEC2"
    },
    {
      "bufferView": 29,
      "componentType": 5126,
      "count": 273,
      "max": [1, 1, 1],
      "min": [-1, -1, -1],
      "type": "VEC3"
    },
    {
      "bufferView": 30,
      "componentType": 5126,
      "count": 273,
      "type": "VEC3"
    },
    {
      "bufferView": 31,
      "componentType": 5126,
      "count": 273,
      "type": "VEC2"
    },
    {
      "bufferView": 32,
      "componentType": 5126,
      "count": 9373,
      "max": [1.0000032186508179, 1, 1.0000064373016357],
      "min": [-1.0000048875808716, -1, -1],
      "type": "VEC3"
    },
    {
      "bufferView": 33,
      "componentType": 5126,
      "count": 9373,
      "type": "VEC3"
    },
    {
      "bufferView": 34,
      "componentType": 5126,
      "count": 9373,
      "type": "VEC2"
    },
    {
      "bufferView": 35,
      "componentType": 5126,
      "count": 273,
      "max": [1, 1, 1],
      "min": [-1, -1, -1],
      "type": "VEC3"
    },
    {
      "bufferView": 36,
      "componentType": 5126,
      "count": 273,
      "type": "VEC3"
    },
    {
      "bufferView": 37,
      "componentType": 5126,
      "count": 273,
      "type": "VEC2"
    },
    {
      "bufferView": 38,
      "componentType": 5126,
      "count": 9373,
      "max": [1.0000032186508179, 1, 1.0000064373016357],
      "min": [-1.0000048875808716, -1, -1],
      "type": "VEC3"
    },
    {
      "bufferView": 39,
      "componentType": 5126,
      "count": 9373,
      "type": "VEC3"
    },
    {
      "bufferView": 40,
      "componentType": 5126,
      "count": 9373,
      "type": "VEC2"
    },
    {
      "bufferView": 41,
      "componentType": 5126,
      "count": 273,
      "max": [1, 1, 1],
      "min": [-1, -1, -1],
      "type": "VEC3"
    },
    {
      "bufferView": 42,
      "componentType": 5126,
      "count": 273,
      "type": "VEC3"
    },
    {
      "bufferView": 43,
      "componentType": 5126,
      "count": 273,
      "type": "VEC2"
    },
    {
      "bufferView": 44,
      "componentType": 5126,
      "count": 9373,
      "max": [1.0000032186508179, 1, 1.0000064373016357],
      "min": [-1.0000048875808716, -1, -1],
      "type": "VEC3"
    },
    {
      "bufferView": 45,
      "componentType": 5126,
      "count": 9373,
      "type": "VEC3"
    },
    {
      "bufferView": 46,
      "componentType": 5126,
      "count": 9373,
      "type": "VEC2"
    }
  ],
  "bufferViews": [
    {
      "buffer": 0,
      "byteLength": 112476,
      "byteOffset": 0
    },
    {
      "buffer": 0,
      "byteLength": 112476,
      "byteOffset": 112476
    },
    {
      "buffer": 0,
      "byteLength": 74984,
      "byteOffset": 224952
    },
    {
      "buffer": 0,
      "byteLength": 108624,
      "byteOffset": 299936
    },
    {
      "buffer": 0,
      "byteLength": 3276,
      "byteOffset": 408560
    },
    {
      "buffer": 0,
      "byteLength": 3276,
      "byteOffset": 411836
    },
    {
      "buffer": 0,
      "byteLength": 2184,
      "byteOffset": 415112
    },
    {
      "buffer": 0,
      "byteLength": 744,
      "byteOffset": 417296
    },
    {
      "buffer": 0,
      "byteLength": 3276,
      "byteOffset": 418040
    },
    {
      "buffer": 0,
      "byteLength": 3276,
      "byteOffset": 421316
    },
    {
      "buffer": 0,
      "byteLength": 2184,
      "byteOffset": 424592
    },
    {
      "buffer": 0,
      "byteLength": 112476,
      "byteOffset": 426776
    },
    {
      "buffer": 0,
      "byteLength": 112476,
      "byteOffset": 539252
    },
    {
      "buffer": 0,
      "byteLength": 74984,
      "byteOffset": 651728
    },
    {
      "buffer": 0,
      "byteLength": 3276,
      "byteOffset": 726712
    },
    {
      "buffer": 0,
      "byteLength": 3276,
      "byteOffset": 729988
    },
    {
      "buffer": 0,
      "byteLength": 2184,
      "byteOffset": 733264
    },
    {
      "buffer": 0,
      "byteLength": 112476,
      "byteOffset": 735448
    },
    {
      "buffer": 0,
      "byteLength": 112476,
      "byteOffset": 847924
    },
    {
      "buffer": 0,
      "byteLength": 74984,
      "byteOffset": 960400
    },
    {
      "buffer": 0,
      "byteLength": 3276,
      "byteOffset": 1035384
    },
    {
      "buffer": 0,
      "byteLength": 3276,
      "byteOffset": 1038660
    },
    {
      "buffer": 0,
      "byteLength": 2184,
      "byteOffset": 1041936
    },
    {
      "buffer": 0,
      "byteLength": 112476,
      "byteOffset": 1044120
    },
    {
      "buffer": 0,
      "byteLength": 112476,
      "byteOffset": 1156596
    },
    {
      "buffer": 0,
      "byteLength": 74984,
      "byteOffset": 1269072
    },
    {
      "buffer": 0,
      "byteLength": 112476,
      "byteOffset": 1344056
    },
    {
      "buffer": 0,
      "byteLength": 112476,
      "byteOffset": 1456532
    },
    {
      "buffer": 0,
      "byteLength": 74984,
      "byteOffset": 1569008
    },
    {
      "buffer": 0,
      "byteLength": 3276,
      "byteOffset": 1643992
    },
    {
      "buffer": 0,
      "byteLength": 3276,
      "byteOffset": 1647268
    },
    {
      "buffer": 0,
      "byteLength": 2184,
      "byteOffset": 1650544
    },
    {
      "buffer": 0,
      "byteLength": 112476,
      "byteOffset": 1652728
    },
    {
      "buffer": 0,
      "byteLength": 112476,
      "byteOffset": 1765204
    },
    {
      "buffer": 0,
      "byteLength": 74984,
      "byteOffset": 1877680
    },
    {
      "buffer": 0,
      "byteLength": 3276,
      "byteOffset": 1952664
    },
    {
      "buffer": 0,
      "byteLength": 3276,
      "byteOffset": 1955940
    },
    {
      "buffer": 0,
      "byteLength": 2184,
      "byteOffset": 1959216
    },
    {
      "buffer": 0,
      "byteLength": 112476,
      "byteOffset": 1961400
    },
    {
      "buffer": 0,
      "byteLength": 112476,
      "byteOffset": 2073876
    },
    {
      "buffer": 0,
      "byteLength": 74984,
      "byteOffset": 2186352
    },
    {
      "buffer": 0,
      "byteLength": 3276,
      "byteOffset": 2261336
    },
    {
      "buffer": 0,
      "byteLength": 3276,
      "byteOffset": 2264612
    },
    {
      "buffer": 0,
      "byteLength": 2184,
      "byteOffset": 2267888
    },
    {
      "buffer": 0,
      "byteLength": 112476,
      "byteOffset": 2270072
    },
    {
      "buffer": 0,
      "byteLength": 112476,
      "byteOffset": 2382548
    },
    {
      "buffer": 0,
      "byteLength": 74984,
      "byteOffset": 2495024
    }
  ],
  "buffers": [
    {
      "byteLength": 2570008,
      "uri": "data:application/octet-stream;base64,"
    }
  ]
}
